<?xml version="1.0" encoding="utf-8"?>
<!-- Generator: Adobe Illustrator 22.0.1, SVG Export Plug-In . SVG Version: 6.00 Build 0)  -->
<svg version="1.1" xmlns="http://www.w3.org/2000/svg" xmlns:xlink="http://www.w3.org/1999/xlink" x="0px" y="0px"
	 viewBox="0 0 115.3 239.9" style="enable-background:new 0 0 115.3 239.9;" xml:space="preserve">
<style type="text/css">
	.st0{fill:#DF0C1B;}
</style>
<g id="Etincelle_x5F_G">
	<path class="st0" d="M38.1,182.8c-2.1-2.1-5.4-2.1-7.5,0l-22,22c-2.1,2.1-2.1,5.4,0,7.5c2.1,2.1,5.4,2.1,7.5,0l22-22
		C40.2,188.3,40.2,184.9,38.1,182.8z"/>
</g>
<g id="Etincelle_x5F_M">
	<path class="st0" d="M57.4,190.6c-2.9,0-5.3,2.4-5.3,5.3v31.2c0,2.9,2.4,5.3,5.3,5.3s5.3-2.4,5.3-5.3v-31.2
		C62.7,193,60.3,190.6,57.4,190.6z"/>
</g>
<g id="Etincelle_x5F_D">
	<path class="st0" d="M106.2,204.9l-22-22c-2.1-2.1-5.4-2.1-7.5,0c-2.1,2.1-2.1,5.4,0,7.5l22,22c2.1,2.1,5.4,2.1,7.5,0
		C108.3,210.3,108.3,206.9,106.2,204.9z"/>
</g>
<g id="Corps">
	<path class="st0" d="M81.6,120.4V80.4h0c-1-60.9-23.5-72.8-23.5-72.8S35.7,19.5,34.6,80.4h0v40.9l23.5,10.7L81.6,120.4v13.3
		l-23.5,11.1l-23.5-10.3v27h16.9v11.2h13.1v-11.2h17v-27.8l13.3-6.4v45.5h13.3v-65.4L81.6,120.4z M58.1,86.9c-1.5,0-2.6-1.2-2.6-2.6
		c0-1.5,1.2-2.7,2.6-2.7c1.5,0,2.6,1.2,2.6,2.7C60.8,85.7,59.6,86.9,58.1,86.9z M58.1,70.9c-4.6,0-8.3-3.7-8.3-8.3s3.7-8.3,8.3-8.3
		s8.3,3.7,8.3,8.3S62.7,70.9,58.1,70.9z M7.9,108.3v64.5h13.3v-44.7l13.4,6.4v-13.4L7.9,108.3z"/>
</g>
</svg>
