<svg id="Calque_1" data-name="Calque 1" xmlns="http://www.w3.org/2000/svg" viewBox="0 0 362.28 366.89"><title>imm</title><circle cx="241.99" cy="82.83" r="7.27" style="fill:#df0c1b"/><circle cx="265.59" cy="82.83" r="7.27" style="fill:#df0c1b"/><circle cx="287.52" cy="82.83" r="7.27" style="fill:#df0c1b"/><circle cx="241.99" cy="128.75" r="7.27" style="fill:#df0c1b"/><circle cx="218.28" cy="128.75" r="7.27" style="fill:#df0c1b"/><circle cx="265.59" cy="128.75" r="7.27" style="fill:#df0c1b"/><circle cx="241.99" cy="195.25" r="7.27" style="fill:#df0c1b"/><circle cx="218.28" cy="195.25" r="7.27" style="fill:#df0c1b"/><circle cx="265.59" cy="195.25" r="7.27" style="fill:#df0c1b"/><circle cx="241.99" cy="217.18" r="7.27" style="fill:#df0c1b"/><circle cx="310.79" cy="195.25" r="7.27" style="fill:#df0c1b"/><circle cx="334.39" cy="195.25" r="7.27" style="fill:#df0c1b"/><circle cx="310.79" cy="172.08" r="7.27" style="fill:#df0c1b"/><circle cx="334.39" cy="172.08" r="7.27" style="fill:#df0c1b"/><circle cx="310.79" cy="217.18" r="7.27" style="fill:#df0c1b"/><circle cx="218.28" cy="217.18" r="7.27" style="fill:#df0c1b"/><circle cx="265.59" cy="217.18" r="7.27" style="fill:#df0c1b"/><circle cx="288.19" cy="195.25" r="7.27" style="fill:#df0c1b"/><circle cx="288.19" cy="217.18" r="7.27" style="fill:#df0c1b"/><circle cx="241.99" cy="150.15" r="7.27" style="fill:#df0c1b"/><circle cx="218.28" cy="150.15" r="7.27" style="fill:#df0c1b"/><circle cx="241.99" cy="174.02" r="7.27" style="fill:#df0c1b"/><circle cx="218.28" cy="174.02" r="7.27" style="fill:#df0c1b"/><circle cx="218.28" cy="238.76" r="7.27" style="fill:#df0c1b"/><circle cx="218.28" cy="305.26" r="7.27" style="fill:#df0c1b"/><circle cx="218.28" cy="327.19" r="7.27" style="fill:#df0c1b"/><circle cx="218.28" cy="351.24" r="7.27" style="fill:#df0c1b"/><circle cx="241.99" cy="327.19" r="7.27" style="fill:#df0c1b"/><circle cx="241.99" cy="351.24" r="7.27" style="fill:#df0c1b"/><circle cx="266.65" cy="327.19" r="7.27" style="fill:#df0c1b"/><circle cx="266.65" cy="351.24" r="7.27" style="fill:#df0c1b"/><circle cx="218.28" cy="260.16" r="7.27" style="fill:#df0c1b"/><circle cx="218.28" cy="284.03" r="7.27" style="fill:#df0c1b"/><circle cx="265.59" cy="150.15" r="7.27" style="fill:#df0c1b"/><circle cx="287.52" cy="128.75" r="7.27" style="fill:#df0c1b"/><path id="CORP" d="M201.83,358.54c-.26,0-7.17.12-9,0-.1-1.93,0-5.11,0-7,0-16.09-.34-32.19.1-48.27.35-12.4-5.41-20.16-16.53-24.22-7.19-2.61-14.65-4.44-22-6.66-3.42-1-5.43.07-7.71,3-6.1,7.92-12.14,16.12-19.48,22.82-10.88,9.94-18.51,10.12-28.94,3-9.93-6.81-20.45-12.75-30.67-19.16-9.29-5.82-12-5.36-19.11,2.69-3,3.41-6.66,7.66-10,10.79-3.48,3.29-8.74,2.87-10.69,1.28-2.66-2.15-8.26-7.36-10.34-11l2.75-3c12.87-14.42,25.05-28.63,38.23-43.25,11.26,7.87,22.28,15.66,33.39,23.31,10,6.85,15.72,6.33,23-3.23,19.86-26.22,39.37-52.7,59-79.08.41-.55.67-1.2,1.63-2.93-9.39,1-17.8,1.9-26.19,2.89-7.44.88-14.83,2.37-22.29,2.71-5.36.24-6.37,3-6.45,7.28-.13,7.09.29,14.25-.54,21.27-1,8.24-6.58,13.33-13.36,13.68-5.24.26-9.34-1.86-10.4-6.95-3.81-18.15-4.46-36.27,3.67-53.59,2.67-5.66,7.45-9.16,13.82-10.63,27.4-6.29,54.73-12.88,82.14-19.1l6-2.82" style="fill:#df0c1b"/><path d="M242.06,7.34a7.26,7.26,0,0,0-7.27,7.26V37.88a7.27,7.27,0,1,0,14.53,0V14.6A7.26,7.26,0,0,0,242.06,7.34Z" style="fill:#df0c1b"/><path d="M194.56,75.57H171.29a7.27,7.27,0,1,0,0,14.53h23.27a7.27,7.27,0,1,0,0-14.53Z" style="fill:#df0c1b"/><path d="M209.21,39.77,192.76,23.31a7.27,7.27,0,0,0-10.28,10.28L198.93,50a7.27,7.27,0,0,0,10.28-10.27Z" style="fill:#df0c1b"/><path d="M338.52,75.57H315.59a31.65,31.65,0,0,0-30.52-23.28H242.65a31.64,31.64,0,0,0-31.6,30.17c0,.13,0,.25,0,.38s0,.14,0,.22c0,.29,0,.58,0,.88h.11a7.24,7.24,0,0,0,14.31,0h.12a17.11,17.11,0,0,1,17.1-17.11h42.42a17.11,17.11,0,0,1,17.11,17.11V85.3h0V98.84H242a7.24,7.24,0,0,0-4.89,1.91,5.66,5.66,0,0,0-.49.49,6.33,6.33,0,0,0-.64.81,7.22,7.22,0,0,0,0,8.12c.13.2.27.38.41.56a7.72,7.72,0,0,0,1,1c.18.15.37.29.56.42a8.13,8.13,0,0,0,1.23.67,7.41,7.41,0,0,0,2.83.57h60.19v15.37h0a0,0,0,0,0,0,0v1.9c0,2.95,3.24,5.33,7.25,5.34h29.08a7.27,7.27,0,0,0,7.27-7.27V82.84A7.26,7.26,0,0,0,338.52,75.57Z" style="fill:#df0c1b"/></svg>