<?xml version="1.0" encoding="utf-8"?>
<!-- Generator: Adobe Illustrator 22.1.0, SVG Export Plug-In . SVG Version: 6.00 Build 0)  -->
<svg version="1.0" id="Lune" xmlns="http://www.w3.org/2000/svg" xmlns:xlink="http://www.w3.org/1999/xlink" x="0px" y="0px"
	 width="376.6px" height="372.9px" viewBox="0 0 376.6 372.9" enable-background="new 0 0 376.6 372.9" xml:space="preserve">
<circle opacity="0.15" fill="#F4F4F4" cx="188.3" cy="185.5" r="176.1"/>
<circle fill="#595B65" cx="188.3" cy="185.5" r="138.1"/>
<circle opacity="0.5" fill="#2F3033" cx="160.7" cy="206.8" r="32.2"/>
<circle opacity="0.5" fill="#2F3033" cx="253.6" cy="163.5" r="32.2"/>
<ellipse transform="matrix(0.818 -0.5752 0.5752 0.818 -31.8479 92.8881)" opacity="0.5" fill="#2F3033" cx="130.9" cy="96.8" rx="26.2" ry="20.7"/>
<ellipse transform="matrix(0.9043 -0.4268 0.4268 0.9043 -99.9387 135.1672)" opacity="0.5" fill="#2F3033" cx="251.5" cy="290.5" rx="11.3" ry="7.6"/>
<ellipse opacity="0.5" fill="#2F3033" cx="234.5" cy="80.2" rx="11.3" ry="7.6"/>
<ellipse transform="matrix(0.3376 -0.9413 0.9413 0.3376 -92.4492 174.1911)" opacity="0.5" fill="#2F3033" cx="77.5" cy="152.8" rx="11.3" ry="7.6"/>
<ellipse transform="matrix(0.9043 -0.4268 0.4268 0.9043 -106.5672 72.1849)" opacity="0.5" fill="#2F3033" cx="107.7" cy="273.8" rx="7.6" ry="11.3"/>
<ellipse opacity="0.5" fill="#2F3033" cx="310.1" cy="189.1" rx="7.6" ry="11.3"/>
</svg>
